{
    "asset": {
        "version": "2.0",
        "generator": "Open Asset Import Library (assimp v5.4.0)"
    },
    "extensionsUsed": [
        "KHR_materials_volume",
        "FB_ngon_encoding"
    ],
    "accessors": [
        {
            "bufferView": 0,
            "byteOffset": 0,
            "componentType": 5126,
            "count": 4,
            "type": "VEC3",
            "max": [
                -0.00501658022403717,
                0.0035718244034796953,
                0.14635531604290009
            ],
            "min": [
                -0.006990082561969757,
                0.003488689661026001,
                0.14558535814285278
            ]
        },
        {
            "bufferView": 1,
            "byteOffset": 0,
            "componentType": 5126,
            "count": 4,
            "type": "VEC3",
            "max": [
                0.0,
                0.9920374751091003,
                0.1661050170660019
            ],
            "min": [
                -0.10080593824386597,
                0.0,
                0.0
            ]
        },
        {
            "bufferView": 2,
            "byteOffset": 0,
            "componentType": 5126,
            "count": 4,
            "type": "VEC2",
            "max": [
                0.21088440716266632,
                0.7557790875434875
            ],
            "min": [
                0.21000497043132782,
                0.7541496157646179
            ]
        },
        {
            "bufferView": 3,
            "byteOffset": 0,
            "componentType": 5125,
            "count": 4,
            "type": "SCALAR",
            "max": [
                3
            ],
            "min": [
                0
            ]
        },
        {
            "bufferView": 4,
            "byteOffset": 0,
            "componentType": 5126,
            "count": 96795,
            "type": "VEC3",
            "max": [
                0.13780109584331512,
                0.11739221215248108,
                0.14635531604290009
            ],
            "min": [
                -0.13780109584331512,
                0.0014616549015045166,
                -0.14635531604290009
            ]
        },
        {
            "bufferView": 5,
            "byteOffset": 0,
            "componentType": 5126,
            "count": 96795,
            "type": "VEC3",
            "max": [
                0.9999993443489075,
                1.0,
                0.9999974370002747
            ],
            "min": [
                -0.9999967217445374,
                -0.9993312358856201,
                -0.9999988675117493
            ]
        },
        {
            "bufferView": 6,
            "byteOffset": 0,
            "componentType": 5126,
            "count": 96795,
            "type": "VEC2",
            "max": [
                0.9973260760307312,
                0.7831730246543884
            ],
            "min": [
                0.0021563470363616943,
                0.004181861877441406
            ]
        },
        {
            "bufferView": 7,
            "byteOffset": 0,
            "componentType": 5125,
            "count": 513924,
            "type": "SCALAR",
            "max": [
                96794
            ],
            "min": [
                0
            ]
        }
    ],
    "buffers": [
        {
            "byteLength": 5153280,
            "uri": "Unit 1 level 1 context a metal bag 3_0.bin"
        }
    ],
    "bufferViews": [
        {
            "buffer": 0,
            "byteOffset": 0,
            "byteLength": 48,
            "target": 34962
        },
        {
            "buffer": 0,
            "byteOffset": 48,
            "byteLength": 48,
            "target": 34962
        },
        {
            "buffer": 0,
            "byteOffset": 96,
            "byteLength": 32,
            "target": 34962
        },
        {
            "buffer": 0,
            "byteOffset": 128,
            "byteLength": 16,
            "target": 34963
        },
        {
            "buffer": 0,
            "byteOffset": 144,
            "byteLength": 1161540,
            "target": 34962
        },
        {
            "buffer": 0,
            "byteOffset": 1161684,
            "byteLength": 1161540,
            "target": 34962
        },
        {
            "buffer": 0,
            "byteOffset": 2323224,
            "byteLength": 774360,
            "target": 34962
        },
        {
            "buffer": 0,
            "byteOffset": 3097584,
            "byteLength": 2055696,
            "target": 34963
        }
    ],
    "images": [
        {
            "uri": "textures/image_0.png"
        }
    ],
    "materials": [
        {
            "name": "main",
            "pbrMetallicRoughness": {
                "baseColorTexture": {
                    "index": 0
                },
                "metallicFactor": 0.0
            }
        }
    ],
    "meshes": [
        {
            "name": "meshes[0]",
            "primitives": [
                {
                    "mode": 1,
                    "material": 0,
                    "indices": 3,
                    "attributes": {
                        "POSITION": 0,
                        "NORMAL": 1,
                        "TEXCOORD_0": 2
                    }
                },
                {
                    "mode": 4,
                    "material": 0,
                    "indices": 7,
                    "attributes": {
                        "POSITION": 4,
                        "NORMAL": 5,
                        "TEXCOORD_0": 6
                    }
                }
            ]
        }
    ],
    "nodes": [
        {
            "name": "Unit 1 level 1 context a metal bag 3",
            "children": [
                1
            ]
        },
        {
            "name": "root",
            "children": [
                2
            ],
            "extras": {
                "name": "root"
            }
        },
        {
            "name": "mesh",
            "mesh": 0,
            "extras": {
                "name": "mesh"
            }
        }
    ],
    "samplers": [
        {
            "magFilter": 9729,
            "minFilter": 9987
        }
    ],
    "scenes": [
        {
            "nodes": [
                0
            ]
        }
    ],
    "textures": [
        {
            "source": 0,
            "sampler": 0
        }
    ],
    "scene": 0
}