{
    "asset": {
        "version": "2.0",
        "generator": "Open Asset Import Library (assimp v5.4.0)"
    },
    "extensionsUsed": [
        "KHR_materials_volume",
        "FB_ngon_encoding"
    ],
    "accessors": [
        {
            "bufferView": 0,
            "byteOffset": 0,
            "componentType": 5126,
            "count": 56736,
            "type": "VEC3",
            "max": [
                0.11113423854112625,
                0.13660357892513275,
                0.2491254210472107
            ],
            "min": [
                -0.1849815845489502,
                -0.010610610246658325,
                -0.3757479786872864
            ]
        },
        {
            "bufferView": 1,
            "byteOffset": 0,
            "componentType": 5126,
            "count": 56736,
            "type": "VEC3",
            "max": [
                0.9999800324440002,
                1.0,
                0.9999967217445374
            ],
            "min": [
                -0.9999771118164063,
                -0.9799966216087341,
                -0.9999964833259583
            ]
        },
        {
            "bufferView": 2,
            "byteOffset": 0,
            "componentType": 5126,
            "count": 56736,
            "type": "VEC2",
            "max": [
                0.9977203011512756,
                0.7146267890930176
            ],
            "min": [
                0.0021161288022994995,
                0.004175662994384766
            ]
        },
        {
            "bufferView": 3,
            "byteOffset": 0,
            "componentType": 5125,
            "count": 317502,
            "type": "SCALAR",
            "max": [
                56735
            ],
            "min": [
                0
            ]
        }
    ],
    "buffers": [
        {
            "byteLength": 3085560,
            "uri": "Can_0.bin"
        }
    ],
    "bufferViews": [
        {
            "buffer": 0,
            "byteOffset": 0,
            "byteLength": 680832,
            "target": 34962
        },
        {
            "buffer": 0,
            "byteOffset": 680832,
            "byteLength": 680832,
            "target": 34962
        },
        {
            "buffer": 0,
            "byteOffset": 1361664,
            "byteLength": 453888,
            "target": 34962
        },
        {
            "buffer": 0,
            "byteOffset": 1815552,
            "byteLength": 1270008,
            "target": 34963
        }
    ],
    "images": [
        {
            "uri": "textures/image_0.png"
        }
    ],
    "materials": [
        {
            "name": "main",
            "pbrMetallicRoughness": {
                "baseColorTexture": {
                    "index": 0
                },
                "metallicFactor": 0.0
            }
        }
    ],
    "meshes": [
        {
            "name": "meshes[0]",
            "primitives": [
                {
                    "mode": 4,
                    "material": 0,
                    "indices": 3,
                    "attributes": {
                        "POSITION": 0,
                        "NORMAL": 1,
                        "TEXCOORD_0": 2
                    }
                }
            ]
        }
    ],
    "nodes": [
        {
            "name": "Can",
            "children": [
                1
            ]
        },
        {
            "name": "root",
            "children": [
                2
            ],
            "extras": {
                "name": "root"
            }
        },
        {
            "name": "mesh",
            "mesh": 0,
            "extras": {
                "name": "mesh"
            }
        }
    ],
    "samplers": [
        {
            "magFilter": 9729,
            "minFilter": 9987
        }
    ],
    "scenes": [
        {
            "nodes": [
                0
            ]
        }
    ],
    "textures": [
        {
            "source": 0,
            "sampler": 0
        }
    ],
    "scene": 0
}