{
    "asset": {
        "version": "2.0",
        "generator": "Open Asset Import Library (assimp v5.4.0)"
    },
    "extensionsUsed": [
        "KHR_materials_volume",
        "FB_ngon_encoding"
    ],
    "accessors": [
        {
            "bufferView": 0,
            "byteOffset": 0,
            "componentType": 5126,
            "count": 95716,
            "type": "VEC3",
            "max": [
                0.36914464831352234,
                0.0929623618721962,
                0.2719390392303467
            ],
            "min": [
                -0.4842722415924072,
                -0.015650250017642975,
                -0.34461572766304016
            ]
        },
        {
            "bufferView": 1,
            "byteOffset": 0,
            "componentType": 5126,
            "count": 95716,
            "type": "VEC3",
            "max": [
                0.99884033203125,
                1.0,
                0.9998539090156555
            ],
            "min": [
                -0.9999866485595703,
                -0.9994778633117676,
                -0.9964583516120911
            ]
        },
        {
            "bufferView": 2,
            "byteOffset": 0,
            "componentType": 5126,
            "count": 95716,
            "type": "VEC2",
            "max": [
                0.9979248046875,
                0.7273064851760864
            ],
            "min": [
                0.0021121948957443237,
                0.0021181702613830566
            ]
        },
        {
            "bufferView": 3,
            "byteOffset": 0,
            "componentType": 5125,
            "count": 540279,
            "type": "SCALAR",
            "max": [
                95715
            ],
            "min": [
                0
            ]
        }
    ],
    "buffers": [
        {
            "byteLength": 5224028,
            "uri": "Scaniverse 2024-11-07 112203_0.bin"
        }
    ],
    "bufferViews": [
        {
            "buffer": 0,
            "byteOffset": 0,
            "byteLength": 1148592,
            "target": 34962
        },
        {
            "buffer": 0,
            "byteOffset": 1148592,
            "byteLength": 1148592,
            "target": 34962
        },
        {
            "buffer": 0,
            "byteOffset": 2297184,
            "byteLength": 765728,
            "target": 34962
        },
        {
            "buffer": 0,
            "byteOffset": 3062912,
            "byteLength": 2161116,
            "target": 34963
        }
    ],
    "images": [
        {
            "uri": "textures/image_0.png"
        }
    ],
    "materials": [
        {
            "name": "main",
            "pbrMetallicRoughness": {
                "baseColorTexture": {
                    "index": 0
                },
                "metallicFactor": 0.0
            }
        }
    ],
    "meshes": [
        {
            "name": "meshes[0]",
            "primitives": [
                {
                    "mode": 4,
                    "material": 0,
                    "indices": 3,
                    "attributes": {
                        "POSITION": 0,
                        "NORMAL": 1,
                        "TEXCOORD_0": 2
                    }
                }
            ]
        }
    ],
    "nodes": [
        {
            "name": "Scaniverse 2024-11-07 112203",
            "children": [
                1
            ]
        },
        {
            "name": "root",
            "children": [
                2
            ],
            "extras": {
                "name": "root"
            }
        },
        {
            "name": "mesh",
            "mesh": 0,
            "extras": {
                "name": "mesh"
            }
        }
    ],
    "samplers": [
        {
            "magFilter": 9729,
            "minFilter": 9987
        }
    ],
    "scenes": [
        {
            "nodes": [
                0
            ]
        }
    ],
    "textures": [
        {
            "source": 0,
            "sampler": 0
        }
    ],
    "scene": 0
}